<?xml version="1.0" encoding="UTF-8" standalone="no"?>
<svg
   xmlns:dc="http://purl.org/dc/elements/1.1/"
   xmlns:cc="http://creativecommons.org/ns#"
   xmlns:rdf="http://www.w3.org/1999/02/22-rdf-syntax-ns#"
   xmlns:svg="http://www.w3.org/2000/svg"
   xmlns="http://www.w3.org/2000/svg"
   version="1.1"
   id="svg3446"
   viewBox="190 190 280 530"
   height="297mm"
   width="210mm">
  <defs
     id="defs3448" />
  <metadata
     id="metadata3451">
    <rdf:RDF>
      <cc:Work
         rdf:about="">
        <dc:format>image/svg+xml</dc:format>
        <dc:type
           rdf:resource="http://purl.org/dc/dcmitype/StillImage" />
        <dc:title></dc:title>
      </cc:Work>
    </rdf:RDF>
  </metadata>
  <g
     id="layer1">
    <circle
       r="53.92857"
       cy="248.62285"
       cx="329.68491"
       id="path3456"
       style="fill:#ececec" />
    <path
       id="rect3480"
       d="m 329.68407,194.69455 c -29.78327,4.6e-4 -53.92727,24.14446 -53.92773,53.92773 0.0239,24.14405 16.09259,45.33011 39.33594,51.86328 l -0.13393,175.13952 c -1.29375,25.09923 2.42626,27.50839 8.14927,34.02092 0,0 88.83227,105.51762 89.9163,108.86261 0.45112,1.39203 -2.96215,3.47675 -2.71758,4.85947 0.55279,3.12534 36.61582,43.54952 36.61582,43.54952 0,0 -7.7522,5.43028 -7.82753,9.11717 -0.0722,3.53164 22.35217,32.86078 30.29843,34.2672 6.09414,1.07861 43.36245,-30.86122 45.60156,-37.20508 2.04172,-5.78459 -22.47821,-34.90838 -28.7832,-35.2793 -3.58728,-0.21104 -8.73233,4.66789 -8.73233,4.66789 0,0 -35.1509,-42.482 -38.24765,-43.23137 -1.62664,-0.39362 -3.97023,1.67519 -5.60957,1.33838 -3.07911,-0.63263 -88.61876,-107.44087 -88.61876,-107.44087 -1.87088,-2.72803 -2.28342,-6.42632 -2.39799,-11.61361 l 0.75669,-180.78292 c 23.70327,-6.21446 40.23709,-27.62844 40.25195,-52.13281 -4.6e-4,-29.78404 -24.14565,-53.92835 -53.92969,-53.92773 z"
       style="color:#000000;clip-rule:nonzero;display:inline;overflow:visible;visibility:visible;opacity:1;isolation:auto;mix-blend-mode:normal;color-interpolation:sRGB;color-interpolation-filters:linearRGB;solid-color:#000000;solid-opacity:1;fill:#f2f2f2;fill-opacity:1;fill-rule:nonzero;stroke:#000000;stroke-width:0.76528722;stroke-linecap:butt;stroke-linejoin:miter;stroke-miterlimit:4;stroke-dasharray:none;stroke-dashoffset:0;stroke-opacity:1;color-rendering:auto;image-rendering:auto;shape-rendering:auto;text-rendering:auto;enable-background:accumulate" />
    <rect
       transform="matrix(0.76590026,-0.64295941,0.67071295,0.74171702,0,0)"
       y="722.97729"
       x="-98.859665"
       height="16.024534"
       width="7.7933564"
       id="rect4416"
       style="fill:#333333;fill-opacity:1;stroke-linecap:round;stroke-linejoin:round" />
    <rect
       transform="matrix(0.74522788,-0.66680987,0.65927714,0.75190003,0,0)"
       y="803.06604"
       x="-67.950089"
       height="39.240067"
       width="2.4380648"
       id="rect4441"
       style="fill:#333333;fill-opacity:1;stroke-linecap:round;stroke-linejoin:round" />
    <rect
       transform="matrix(0.74395488,-0.66822986,0.66070987,0.75064137,0,0)"
       y="800.83362"
       x="-104.9338"
       height="39.240067"
       width="2.4380648"
       id="rect4441-9"
       style="fill:#333333;fill-opacity:1;stroke-linecap:round;stroke-linejoin:round" />
  </g>
  <g
     id="layer2">
    <circle
       r="28.92857"
       cy="249.69429"
       cx="329.32776"
       id="path3456-2"
       style="fill:#b3b3b3" />
  </g>
</svg>
